# Blender 3.6.5
# www.blender.org
mtllib JerryCan.mtl
o Jerrycan
v -0.058250 0.733908 0.188315
v -0.058250 0.803450 0.257857
v -0.058250 0.754276 0.237489
v -0.089805 0.763300 0.228465
v -0.096897 0.754276 0.188315
v -0.058250 1.180080 0.257857
v -0.058250 1.249622 0.188315
v -0.058250 1.229253 0.237489
v -0.089805 1.220230 0.228465
v -0.058250 0.733908 -0.078707
v -0.058250 0.803450 -0.148249
v -0.096897 0.754276 -0.078707
v -0.089805 0.763300 -0.118857
v -0.058250 0.754276 -0.127881
v -0.058250 1.249622 -0.078707
v -0.058250 1.180080 -0.148249
v -0.058250 1.229253 -0.127881
v -0.089805 1.220230 -0.118857
v 0.058250 0.733908 0.188315
v 0.058250 0.803450 0.257857
v 0.096897 0.754276 0.188315
v 0.089805 0.763300 0.228465
v 0.096897 0.803450 0.237489
v 0.058250 0.754276 0.237489
v 0.058250 1.249622 0.188315
v 0.058250 1.180080 0.257857
v 0.058250 1.229253 0.237489
v 0.089805 1.220230 0.228465
v 0.096897 1.180080 0.237489
v 0.058250 0.733908 -0.078707
v 0.058250 0.803450 -0.148249
v 0.058250 0.754276 -0.127881
v 0.089805 0.763300 -0.118857
v 0.096897 0.754276 -0.078707
v 0.058250 1.249622 -0.078707
v 0.058250 1.180080 -0.148249
v 0.089805 1.220230 -0.118857
v 0.096897 1.180080 -0.127881
v 0.058250 1.229253 -0.127881
v -0.018022 1.205010 0.242858
v -0.018022 1.230927 0.216941
v 0.009802 1.326222 0.347405
v 0.017355 1.231066 0.216802
v 0.017355 1.204872 0.242996
v -0.009308 1.340297 0.333331
v -0.013831 1.285185 0.304801
v -0.013831 1.305371 0.284615
v 0.009802 1.340372 0.333256
v 0.013722 1.305479 0.284507
v 0.013722 1.285077 0.304909
v -0.009308 1.326297 0.347330
v 0.005686 1.335933 0.358409
v -0.004561 1.345816 0.354378
v 0.005686 1.345869 0.354356
v -0.004561 1.335985 0.358388
v -0.099841 0.839227 0.080307
v -0.099841 0.911458 0.152538
v -0.099841 0.860383 0.131382
v -0.099841 1.072071 0.152538
v -0.099841 1.144303 0.080307
v -0.099841 1.123147 0.131382
v -0.099841 0.911458 -0.042930
v -0.099841 0.839227 0.029301
v -0.099841 0.860383 -0.021774
v -0.099841 1.144303 0.029301
v -0.099841 1.072071 -0.042930
v -0.099841 1.123147 -0.021774
v 0.099841 0.911458 0.152538
v 0.099841 0.839227 0.080307
v 0.099841 0.860383 0.131382
v 0.099841 1.144303 0.080307
v 0.099841 1.072071 0.152538
v 0.099841 1.123147 0.131382
v 0.099841 0.839227 0.029301
v 0.099841 0.911458 -0.042930
v 0.099841 0.860383 -0.021774
v 0.099841 1.072071 -0.042930
v 0.099841 1.144303 0.029301
v 0.099841 1.123147 -0.021774
v -0.112905 0.875880 0.188315
v -0.112905 0.803450 0.115884
v -0.096912 0.803450 0.237441
v -0.112905 0.824664 0.167101
v -0.112905 0.803450 -0.006276
v -0.112905 0.875880 -0.078707
v -0.096912 0.803450 -0.127833
v -0.112905 0.824664 -0.057493
v -0.112905 1.180080 0.115884
v -0.112905 1.107649 0.188315
v -0.096912 1.180080 0.237441
v -0.096912 1.229206 0.188315
v -0.112905 1.158865 0.167101
v -0.112905 1.107649 -0.078707
v -0.112905 1.180080 -0.006277
v -0.096912 1.229206 -0.078707
v -0.096912 1.180080 -0.127833
v -0.112905 1.158865 -0.057493
v 0.112905 1.180080 -0.006277
v 0.112905 1.107649 -0.078707
v 0.096912 1.229206 -0.078707
v 0.112905 1.158865 -0.057493
v 0.112905 0.875880 -0.078707
v 0.112905 0.803450 -0.006276
v 0.096912 0.803450 -0.127833
v 0.112905 0.824664 -0.057493
v 0.112905 0.803450 0.115884
v 0.112905 0.875880 0.188315
v 0.112905 0.824664 0.167101
v 0.112905 1.107649 0.188315
v 0.112905 1.180080 0.115884
v 0.096912 1.229206 0.188315
v 0.112905 1.158865 0.167101
v -0.112905 0.889872 0.174216
v -0.112905 0.817548 0.101892
v -0.112905 0.838732 0.153033
v -0.112905 0.817548 0.007716
v -0.112905 0.889872 -0.064608
v -0.112905 0.838732 -0.043425
v -0.112905 1.165981 0.101892
v -0.112905 1.093657 0.174216
v -0.112905 1.144798 0.153033
v -0.112905 1.093657 -0.064608
v -0.112905 1.165981 0.007716
v -0.112905 1.144798 -0.043425
v 0.112905 1.165981 0.007716
v 0.112905 1.093657 -0.064608
v 0.112905 1.144798 -0.043425
v 0.112905 0.889872 -0.064608
v 0.112905 0.817548 0.007716
v 0.112905 0.838732 -0.043425
v 0.112905 0.817548 0.101892
v 0.112905 0.889872 0.174216
v 0.112905 0.838732 0.153033
v 0.112905 1.093657 0.174216
v 0.112905 1.165981 0.101892
v 0.112905 1.144798 0.153033
v 0.099841 0.991765 0.054804
v -0.099841 0.991765 0.054804
v 0.000928 1.232822 0.215046
v 0.000928 1.203115 0.244753
v 0.000928 1.325273 0.348354
v 0.000928 1.306847 0.283139
v 0.000928 1.283709 0.306277
v 0.000928 1.341320 0.332307
v 0.000928 1.335266 0.358681
v 0.000928 1.346535 0.354085
v -0.023955 1.217969 0.229899
v 0.014369 1.333297 0.340330
v 0.025811 1.217969 0.229899
v -0.018453 1.295278 0.294708
v -0.012514 1.333297 0.340330
v 0.020308 1.295278 0.294708
v 0.008136 1.340901 0.356383
v -0.006280 1.340901 0.356383
v 0.000928 1.340901 0.356383
vn 0.2220 0.1765 0.9589
vn -0.2223 -0.1764 0.9589
vn 0.2220 -0.1765 0.9589
vn 0.9616 -0.0323 -0.2727
vn 0.9797 0.0503 -0.1940
vn 0.9616 0.0323 -0.2727
vn -0.2223 0.9589 -0.1764
vn 0.2223 0.9589 0.1764
vn 0.2223 0.9589 -0.1764
vn -0.9616 -0.0323 -0.2727
vn -0.9797 0.0503 -0.1940
vn -0.9797 -0.0503 -0.1940
vn -0.2223 0.1764 -0.9589
vn 0.2223 -0.1764 -0.9589
vn -0.2223 -0.1764 -0.9589
vn -0.2220 -0.9589 0.1765
vn -0.1828 -0.6952 0.6952
vn -0.6749 -0.5217 0.5218
vn -0.7856 -0.1489 0.6006
vn -0.7852 -0.6010 0.1490
vn -0.9874 -0.1577 -0.0132
vn -0.7852 -0.6010 -0.1490
vn -0.2223 0.1764 0.9589
vn -0.1828 0.6952 0.6952
vn -0.6749 0.5218 0.5218
vn -0.2223 0.9589 0.1764
vn -0.7856 0.6005 0.1489
vn -0.9797 -0.1940 -0.0503
vn -0.9874 0.1577 -0.0132
vn -0.9797 -0.1940 0.0503
vn -0.2220 -0.9589 -0.1765
vn -0.6749 -0.5217 -0.5218
vn -0.7856 0.1489 -0.6006
vn -0.9874 -0.0132 -0.1577
vn -0.9874 0.0132 -0.1577
vn -0.1828 -0.6952 -0.6952
vn -0.1828 0.6952 -0.6952
vn -0.6749 0.5218 -0.5218
vn 0.2220 -0.9589 0.1765
vn 0.7852 -0.6010 0.1490
vn 0.6749 -0.5218 0.5218
vn 0.7852 -0.1490 0.6010
vn 0.9874 0.0132 0.1577
vn 0.7852 0.1490 0.6010
vn 0.1828 -0.6952 0.6952
vn 0.1828 0.6952 0.6952
vn 0.6749 0.5218 0.5217
vn 0.2220 -0.9589 -0.1765
vn 0.1828 -0.6952 -0.6952
vn 0.6749 -0.5217 -0.5218
vn 0.7856 -0.1489 -0.6005
vn 0.7852 -0.6010 -0.1490
vn 0.9874 -0.1577 0.0132
vn 0.7856 0.6005 -0.1489
vn 0.6749 0.5218 -0.5217
vn 0.7852 0.1490 -0.6010
vn 0.9874 -0.0132 -0.1577
vn 0.2220 0.1765 -0.9589
vn 0.1828 0.6952 -0.6952
vn -0.9874 0.0132 0.1577
vn -0.7856 0.1489 0.6006
vn 0.9797 -0.1940 -0.0503
vn 0.9874 0.1577 -0.0132
vn 0.9874 0.1577 0.0132
vn -0.0047 -0.7518 0.6593
vn -0.5628 -0.7703 0.2998
vn -0.0044 -0.9101 0.4145
vn 0.6596 -0.5256 0.5373
vn 0.9969 -0.0666 -0.0422
vn 0.9983 -0.0278 -0.0516
vn -0.7856 0.6005 -0.1489
vn -0.9874 0.1577 0.0132
vn -0.9797 -0.0503 0.1940
vn -0.9797 0.0503 0.1940
vn -0.9797 0.1940 0.0503
vn -0.9874 -0.1577 0.0132
vn -0.9797 0.1940 -0.0503
vn 0.9797 -0.0503 -0.1940
vn 0.9874 -0.0132 0.1577
vn 0.9797 0.1940 -0.0503
vn 0.9874 -0.1577 -0.0132
vn 0.9797 0.1940 0.0503
vn 0.9797 0.0503 0.1940
vn 0.9874 0.0132 -0.1577
vn 0.9797 -0.0503 0.1940
vn -0.7856 -0.1489 -0.6006
vn 0.7856 0.6005 0.1489
vn -0.0048 0.6604 -0.7509
vn 0.6590 0.4622 -0.5933
vn -0.0048 0.7160 -0.6980
vn -0.9981 -0.0240 -0.0561
vn -0.6140 0.5013 -0.6097
vn -0.9968 -0.0707 -0.0379
vn -0.0047 0.6068 -0.7949
vn 0.6568 0.4723 -0.5878
vn -0.0048 -0.6770 0.7360
vn -0.5884 -0.6223 0.5163
vn -0.9759 -0.1651 -0.1429
vn 0.6013 -0.7500 0.2756
vn 0.9760 -0.1621 -0.1457
vn -0.4030 -0.8106 -0.4248
vn -0.0033 -0.9085 -0.4179
vn -0.6170 0.5052 -0.6034
vn -0.6578 -0.3070 -0.6878
vn 0.4299 -0.7941 -0.4297
vn 0.6369 -0.3112 -0.7054
vn 0.4054 0.1679 -0.8986
vn -0.0029 0.2458 -0.9693
vn -0.0000 -0.3777 -0.9259
vn -0.9874 -0.0132 0.1577
vn -0.9616 -0.2727 0.0323
vn -0.9616 -0.0323 0.2727
vn -0.9616 0.0323 0.2727
vn 0.9616 0.2727 0.0323
vn -0.9616 0.2727 -0.0323
vn -0.9690 0.1748 -0.1748
vn -1.0000 -0.0000 -0.0000
vn 0.9616 -0.0323 0.2727
vn 0.9616 -0.2727 0.0323
vn 0.9616 -0.2727 -0.0323
vn -0.9911 -0.0943 0.0942
vn -0.9911 -0.0943 -0.0942
vn -0.9911 0.0942 0.0942
vn -0.9911 0.0942 -0.0942
vn 0.9911 0.0942 -0.0943
vn 0.9911 -0.0943 -0.0942
vn 0.9911 -0.0943 0.0943
vn 0.9911 0.0942 0.0943
vn -0.9885 0.1071 -0.1071
vn -0.9885 0.1071 0.1071
vn -0.9885 -0.1071 -0.1071
vn -0.9885 -0.1071 0.1070
vn 0.9885 -0.1070 0.1070
vn 0.9885 0.1071 0.1071
vn 0.9885 0.1071 -0.1071
vn 0.9885 -0.1070 -0.1071
vn -0.9690 0.1748 0.1748
vn -0.9616 0.2727 0.0323
vn -0.9690 -0.1748 -0.1748
vn -0.9690 -0.1748 0.1748
vn 0.9797 -0.1940 0.0503
vn 0.9690 -0.1748 0.1748
vn 0.9690 0.1748 0.1748
vn 0.9616 0.0323 0.2727
vn 0.9690 0.1748 -0.1748
vn 0.9616 0.2727 -0.0323
vn 0.9690 -0.1748 -0.1748
vn 1.0000 -0.0000 -0.0000
vn -0.9616 0.0323 -0.2727
vn -0.9616 -0.2727 -0.0323
vn -0.3813 0.1841 -0.9059
vn 0.6278 -0.6035 0.4916
vn -0.5865 0.4781 -0.6538
vn -0.6160 -0.5464 0.5675
vn 0.6263 0.4559 -0.6324
vt 0.434225 0.555519
vt 0.554145 0.943203
vt 0.434225 0.943203
vt 0.683098 0.166791
vt 0.705412 0.352014
vt 0.683098 0.331270
vt 0.045977 0.832797
vt 0.165896 0.557938
vt 0.165896 0.832797
vt 0.093490 0.167961
vt 0.070890 0.355845
vt 0.070890 0.146205
vt 0.822701 0.056799
vt 0.942620 0.444483
vt 0.822701 0.444483
vt 0.827860 0.832935
vt 0.818476 0.883552
vt 0.785273 0.874264
vt 0.593946 0.943203
vt 0.586632 0.984531
vt 0.056737 0.494755
vt 0.256637 0.444889
vt 0.331532 0.494961
vt 0.554145 0.555519
vt 0.554149 0.504902
vt 0.586632 0.514190
vt 0.045977 0.557938
vt 0.006180 0.557938
vt 0.013496 0.516610
vt 0.145320 0.071858
vt 0.256637 0.057438
vt 0.242238 0.071931
vt 0.827860 0.558076
vt 0.782902 0.558076
vt 0.785273 0.516747
vt 0.382088 0.056961
vt 0.331176 0.370433
vt 0.331176 0.132005
vt 0.822699 0.495098
vt 0.790217 0.485809
vt 0.045977 0.883414
vt 0.013496 0.874126
vt 0.782902 0.056797
vt 0.790217 0.015468
vt 0.935097 0.832935
vt 0.961287 0.832935
vt 0.950602 0.874264
vt 0.770542 0.442184
vt 0.719925 0.128997
vt 0.770542 0.056490
vt 0.434229 0.993820
vt 0.401750 0.984531
vt 0.165896 0.507321
vt 0.198377 0.516610
vt 0.394448 0.555519
vt 0.401750 0.514190
vt 0.935097 0.558076
vt 0.925713 0.507459
vt 0.950602 0.516747
vt 0.982415 0.444481
vt 0.975098 0.485809
vt 0.445065 0.492541
vt 0.645368 0.440517
vt 0.719925 0.492541
vt 0.205693 0.832797
vt 0.198377 0.874126
vt 0.394448 0.056491
vt 0.445065 0.366343
vt 0.394497 0.442183
vt 0.942620 0.056799
vt 0.942618 0.006180
vt 0.975098 0.015468
vt 0.056381 0.131800
vt 0.593946 0.555519
vt 0.942618 0.495098
vt 0.822699 0.006180
vt 0.630965 0.069261
vt 0.519622 0.054823
vt 0.645368 0.054823
vt 0.982399 0.056797
vt 0.554149 0.993820
vt 0.434229 0.504902
vt 0.938134 0.903546
vt 0.920234 0.904567
vt 0.950162 0.908457
vt 0.921885 0.942038
vt 0.331532 0.006386
vt 0.130920 0.057344
vt 0.056736 0.006180
vt 0.316667 0.146389
vt 0.316667 0.356028
vt 0.242238 0.430375
vt 0.130920 0.444795
vt 0.145320 0.430302
vt 0.705412 0.143325
vt 0.719925 0.366343
vt 0.630965 0.426079
vt 0.519622 0.440517
vt 0.534025 0.426079
vt 0.165896 0.883414
vt 0.006180 0.832797
vt 0.459578 0.352014
vt 0.445065 0.128997
vt 0.459578 0.143325
vt 0.961287 0.558076
vt 0.782902 0.444481
vt 0.818476 0.507459
vt 0.782902 0.832935
vt 0.394448 0.943203
vt 0.925714 0.883552
vt 0.045977 0.507321
vt 0.205693 0.557938
vt 0.883394 0.958287
vt 0.886723 0.973952
vt 0.883394 0.958287
vt 0.899642 0.919795
vt 0.885315 0.941681
vt 0.899642 0.919795
vt 0.888305 0.970315
vt 0.921528 0.905467
vt 0.899642 0.919795
vt 0.953781 0.906415
vt 0.921885 0.942038
vt 0.921529 0.905468
vt 0.938134 0.903546
vt 0.884641 0.939425
vt 0.950163 0.908457
vt 0.921886 0.942038
vt 0.888304 0.970315
vt 0.883394 0.958287
vt 0.910764 0.930916
vt 0.006180 0.056680
vt 0.056381 0.370228
vt 0.006180 0.444131
vt 0.719925 0.006180
vt 0.445065 0.006180
vt 0.240067 0.529540
vt 0.218054 0.604262
vt 0.218054 0.507321
vt 0.294648 0.168112
vt 0.294648 0.333340
vt 0.556244 0.405240
vt 0.167824 0.407552
vt 0.115262 0.385749
vt 0.194069 0.250651
vt 0.481892 0.166791
vt 0.556244 0.092822
vt 0.608746 0.092822
vt 0.078213 0.422932
vt 0.015575 0.485189
vt 0.309344 0.423105
vt 0.382088 0.444413
vt 0.373009 0.485456
vt 0.078213 0.079128
vt 0.015575 0.015130
vt 0.309344 0.079301
vt 0.373009 0.015397
vt 0.466902 0.076548
vt 0.403737 0.016113
vt 0.466902 0.418792
vt 0.403737 0.484039
vt 0.698087 0.418792
vt 0.761253 0.484039
vt 0.698088 0.076548
vt 0.761253 0.016113
vt 0.092690 0.408471
vt 0.294867 0.408622
vt 0.092690 0.093611
vt 0.294867 0.093762
vt 0.481383 0.090954
vt 0.481383 0.404386
vt 0.683607 0.404386
vt 0.683607 0.090954
vt 0.272876 0.385867
vt 0.220314 0.407591
vt 0.115262 0.115435
vt 0.272876 0.115553
vt 0.534025 0.069261
vt 0.503669 0.114487
vt 0.503669 0.383574
vt 0.481892 0.331270
vt 0.661321 0.383574
vt 0.608746 0.405240
vt 0.661321 0.114487
vt 0.582495 0.249031
vt 0.093490 0.333190
vt 0.167824 0.093710
vt 0.220314 0.093750
vt 0.885315 0.941681
vt 0.950162 0.908457
vt 0.885315 0.941681
vt 0.921529 0.905467
vt 0.888304 0.970315
vt 0.240067 0.582043
s 1
usemtl Material
f 26/1/1 2/2/2 20/3/3
f 72/4/4 132/5/5 68/6/6
f 15/7/7 25/8/8 35/9/9
f 59/10/10 113/11/11 120/12/12
f 16/13/13 31/14/14 11/15/15
f 1/16/16 3/17/17 4/18/18
f 2/2/2 82/19/19 4/20/18
f 5/21/20 84/22/21 12/23/22
f 6/24/23 8/25/24 9/26/25
f 7/27/26 91/28/27 9/29/25
f 119/30/28 94/31/29 123/32/30
f 10/33/31 12/34/22 13/35/32
f 96/36/33 85/37/34 93/38/35
f 11/15/15 14/39/36 13/40/32
f 15/7/7 17/41/37 18/42/38
f 16/13/13 96/43/33 18/44/38
f 19/45/39 21/46/40 22/47/41
f 23/48/42 109/49/43 29/50/44
f 20/3/3 24/51/45 22/52/41
f 25/8/8 27/53/46 28/54/47
f 26/1/1 29/55/44 28/56/47
f 30/57/48 32/58/49 33/59/50
f 31/14/14 104/60/51 33/61/50
f 34/62/52 106/63/53 21/64/40
f 35/9/9 100/65/54 37/66/55
f 38/67/56 102/68/57 104/69/51
f 36/70/58 39/71/59 37/72/55
f 1/16/16 12/34/22 10/33/31
f 113/11/11 89/73/60 120/12/12
f 2/2/2 90/74/61 82/19/19
f 15/7/7 91/28/27 7/27/26
f 11/15/15 96/43/33 16/13/13
f 10/33/31 32/58/49 30/57/48
f 14/39/36 31/14/14 32/75/49
f 35/9/9 17/41/37 15/7/7
f 39/71/59 16/13/13 17/76/37
f 135/77/62 98/78/63 110/79/64
f 38/80/56 31/14/14 36/70/58
f 30/57/48 21/46/40 19/45/39
f 25/8/8 100/65/54 35/9/9
f 20/3/3 29/55/44 26/1/1
f 19/45/39 3/17/17 1/16/16
f 24/51/45 2/2/2 3/81/17
f 7/27/26 27/53/46 25/8/8
f 8/25/24 26/1/1 27/82/46
f 30/57/48 1/16/16 10/33/31
f 142/83/65 48/84/66 144/83/67
f 41/85/68 150/86/69 147/86/70
f 95/87/71 88/88/72 91/89/27
f 122/90/73 85/37/34 117/91/74
f 116/92/75 81/93/76 114/94/77
f 134/95/78 107/96/79 132/5/5
f 131/97/80 103/98/81 129/99/82
f 39/100/59 35/9/9 37/66/55
f 95/101/71 15/7/7 18/42/38
f 17/76/37 16/13/13 18/44/38
f 38/80/56 36/70/58 37/72/55
f 128/102/83 99/103/84 126/104/85
f 32/75/49 31/14/14 33/61/50
f 34/105/52 30/57/48 33/59/50
f 86/106/86 11/15/15 13/40/32
f 14/107/36 10/33/31 13/35/32
f 5/108/20 1/16/16 4/18/18
f 3/81/17 2/2/2 4/20/18
f 23/109/42 20/3/3 22/52/41
f 24/110/45 19/45/39 22/47/41
f 8/111/24 7/27/26 9/29/25
f 90/74/61 6/24/23 9/26/25
f 27/82/46 26/1/1 28/56/47
f 111/112/87 25/8/8 28/54/47
f 143/113/88 51/114/89 141/115/90
f 149/116/91 50/117/92 152/118/93
f 140/113/94 46/119/95 143/113/88
f 139/83/96 49/120/97 142/83/65
f 50/117/92 148/121/98 152/118/93
f 150/86/69 45/122/99 151/123/100
f 144/83/67 54/124/101 146/125/102
f 42/126/103 153/116/104 148/121/98
f 151/123/100 53/127/105 154/128/106
f 141/115/90 55/129/107 145/130/108
f 155/131/109 55/129/107 154/128/106
f 90/132/61 80/133/110 82/134/19
f 111/135/87 98/78/63 100/136/54
f 65/137/111 119/138/28 123/139/30
f 66/140/112 117/91/74 62/141/113
f 74/142/114 131/97/80 129/99/82
f 56/143/115 58/144/116 138/145/117
f 77/146/118 128/102/83 126/104/85
f 78/147/119 135/77/62 71/148/120
f 83/149/121 5/21/20 4/150/18
f 87/151/122 86/152/86 13/153/32
f 92/154/123 90/132/61 9/155/25
f 97/156/124 95/87/71 18/157/38
f 101/158/125 38/67/56 37/159/55
f 105/160/126 34/62/52 33/161/50
f 108/162/127 23/48/42 22/163/41
f 112/164/128 111/135/87 28/165/47
f 80/133/110 115/166/129 83/149/121
f 115/166/129 81/93/76 83/149/121
f 85/37/34 118/167/130 117/91/74
f 118/167/130 84/22/21 116/92/75
f 88/88/72 121/168/131 92/154/123
f 121/168/131 89/73/60 92/154/123
f 93/38/35 124/169/132 97/156/124
f 124/169/132 94/31/29 97/156/124
f 98/78/63 127/170/133 101/158/125
f 127/170/133 99/103/84 101/158/125
f 103/98/81 130/171/134 129/99/82
f 130/171/134 102/68/57 128/102/83
f 107/96/79 133/172/135 132/5/5
f 133/172/135 106/63/53 131/97/80
f 109/49/43 136/173/136 112/164/128
f 136/173/136 110/79/64 112/164/128
f 113/11/11 58/144/116 115/166/129
f 58/144/116 114/94/77 115/166/129
f 117/91/74 64/174/137 62/141/113
f 64/174/137 116/92/75 63/175/138
f 119/30/28 61/176/139 121/168/131
f 61/176/139 120/12/12 121/168/131
f 122/90/73 67/177/140 124/169/132
f 67/177/140 123/32/30 124/169/132
f 125/178/141 79/179/142 127/170/133
f 79/179/142 126/104/85 127/170/133
f 129/99/82 76/180/143 74/142/114
f 76/180/143 128/102/83 75/181/144
f 132/5/5 70/182/145 68/6/6
f 70/182/145 131/97/80 69/183/146
f 134/95/78 73/184/147 136/173/136
f 73/184/147 135/77/62 136/173/136
f 56/143/115 116/92/75 114/94/77
f 83/149/121 82/134/19 80/133/110
f 87/151/122 12/23/22 84/22/21
f 101/158/125 100/136/54 98/78/63
f 105/160/126 104/69/51 102/68/57
f 108/162/127 21/64/40 106/63/53
f 112/164/128 29/50/44 109/49/43
f 97/156/124 96/36/33 93/38/35
f 92/154/123 91/89/27 88/88/72
f 74/142/114 76/180/143 137/185/148
f 76/180/143 75/181/144 137/185/148
f 75/181/144 77/146/118 137/185/148
f 77/146/118 79/179/142 137/185/148
f 79/179/142 78/147/119 137/185/148
f 78/147/119 71/148/120 137/185/148
f 71/148/120 73/184/147 137/185/148
f 73/184/147 72/4/4 137/185/148
f 72/4/4 68/6/6 137/185/148
f 68/6/6 70/182/145 137/185/148
f 70/182/145 69/183/146 137/185/148
f 69/183/146 74/142/114 137/185/148
f 58/144/116 57/186/149 138/145/117
f 57/186/149 59/10/10 138/145/117
f 59/10/10 61/176/139 138/145/117
f 61/176/139 60/187/150 138/145/117
f 60/187/150 65/188/111 138/145/117
f 65/188/111 67/177/140 138/145/117
f 67/177/140 66/140/112 138/145/117
f 66/140/112 62/141/113 138/145/117
f 62/141/113 64/174/137 138/145/117
f 64/174/137 63/175/138 138/145/117
f 63/175/138 56/143/115 138/145/117
f 52/189/151 155/131/109 153/116/104
f 141/115/90 52/189/151 42/126/103
f 144/83/67 53/127/105 45/122/99
f 139/83/96 47/190/152 41/85/68
f 44/191/153 143/113/88 50/117/92
f 143/113/88 42/126/103 50/117/92
f 142/83/65 45/122/99 47/190/152
f 54/124/101 155/131/109 146/125/102
f 155/131/109 53/127/105 146/125/102
f 51/114/89 154/128/106 55/129/107
f 148/121/98 54/124/101 48/84/66
f 46/119/95 151/123/100 51/114/89
f 152/118/93 48/84/66 49/120/97
f 43/192/154 152/118/93 49/120/97
f 147/86/70 46/119/95 40/193/155
f 26/1/1 6/24/23 2/2/2
f 72/4/4 134/95/78 132/5/5
f 15/7/7 7/27/26 25/8/8
f 59/10/10 57/186/149 113/11/11
f 16/13/13 36/70/58 31/14/14
f 5/21/20 81/93/76 84/22/21
f 119/30/28 88/88/72 94/31/29
f 96/36/33 86/152/86 85/37/34
f 23/48/42 107/96/79 109/49/43
f 34/62/52 103/98/81 106/63/53
f 38/67/56 99/103/84 102/68/57
f 1/16/16 5/108/20 12/34/22
f 113/11/11 80/133/110 89/73/60
f 2/2/2 6/24/23 90/74/61
f 15/7/7 95/101/71 91/28/27
f 11/15/15 86/106/86 96/43/33
f 10/33/31 14/107/36 32/58/49
f 14/39/36 11/15/15 31/14/14
f 35/9/9 39/100/59 17/41/37
f 39/71/59 36/70/58 16/13/13
f 135/77/62 125/178/141 98/78/63
f 38/80/56 104/60/51 31/14/14
f 30/57/48 34/105/52 21/46/40
f 25/8/8 111/112/87 100/65/54
f 20/3/3 23/109/42 29/55/44
f 19/45/39 24/110/45 3/17/17
f 24/51/45 20/3/3 2/2/2
f 7/27/26 8/111/24 27/53/46
f 8/25/24 6/24/23 26/1/1
f 30/57/48 19/45/39 1/16/16
f 142/83/65 49/120/97 48/84/66
f 41/85/68 47/190/152 150/86/69
f 95/87/71 94/31/29 88/88/72
f 122/90/73 93/38/35 85/37/34
f 116/92/75 84/22/21 81/93/76
f 134/95/78 109/49/43 107/96/79
f 131/97/80 106/63/53 103/98/81
f 128/102/83 102/68/57 99/103/84
f 143/113/88 46/119/95 51/114/89
f 149/116/91 44/191/153 50/117/92
f 140/113/94 40/193/155 46/119/95
f 139/83/96 43/192/154 49/120/97
f 50/117/92 42/126/103 148/121/98
f 150/86/69 47/190/152 45/122/99
f 144/83/67 48/84/66 54/124/101
f 42/126/103 52/189/151 153/116/104
f 151/123/100 45/122/99 53/127/105
f 141/115/90 51/114/89 55/129/107
f 155/131/109 145/130/108 55/129/107
f 90/132/61 89/73/60 80/133/110
f 111/135/87 110/79/64 98/78/63
f 65/137/111 60/194/150 119/138/28
f 66/140/112 122/90/73 117/91/74
f 74/142/114 69/183/146 131/97/80
f 77/146/118 75/181/144 128/102/83
f 78/147/119 125/178/141 135/77/62
f 83/149/121 81/93/76 5/21/20
f 87/151/122 85/37/34 86/152/86
f 92/154/123 89/73/60 90/132/61
f 97/156/124 94/31/29 95/87/71
f 101/158/125 99/103/84 38/67/56
f 105/160/126 103/98/81 34/62/52
f 108/162/127 107/96/79 23/48/42
f 112/164/128 110/79/64 111/135/87
f 80/133/110 113/11/11 115/166/129
f 115/166/129 114/94/77 81/93/76
f 85/37/34 87/151/122 118/167/130
f 118/167/130 87/151/122 84/22/21
f 88/88/72 119/30/28 121/168/131
f 121/168/131 120/12/12 89/73/60
f 93/38/35 122/90/73 124/169/132
f 124/169/132 123/32/30 94/31/29
f 98/78/63 125/178/141 127/170/133
f 127/170/133 126/104/85 99/103/84
f 103/98/81 105/160/126 130/171/134
f 130/171/134 105/160/126 102/68/57
f 107/96/79 108/162/127 133/172/135
f 133/172/135 108/162/127 106/63/53
f 109/49/43 134/95/78 136/173/136
f 136/173/136 135/77/62 110/79/64
f 113/11/11 57/186/149 58/144/116
f 58/144/116 56/143/115 114/94/77
f 117/91/74 118/167/130 64/174/137
f 64/174/137 118/167/130 116/92/75
f 119/30/28 60/187/150 61/176/139
f 61/176/139 59/10/10 120/12/12
f 122/90/73 66/140/112 67/177/140
f 67/177/140 65/188/111 123/32/30
f 125/178/141 78/147/119 79/179/142
f 79/179/142 77/146/118 126/104/85
f 129/99/82 130/171/134 76/180/143
f 76/180/143 130/171/134 128/102/83
f 132/5/5 133/172/135 70/182/145
f 70/182/145 133/172/135 131/97/80
f 134/95/78 72/4/4 73/184/147
f 73/184/147 71/148/120 135/77/62
f 56/143/115 63/175/138 116/92/75
f 83/149/121 4/150/18 82/134/19
f 87/151/122 13/153/32 12/23/22
f 101/158/125 37/159/55 100/136/54
f 105/160/126 33/161/50 104/69/51
f 108/162/127 22/163/41 21/64/40
f 112/164/128 28/165/47 29/50/44
f 97/156/124 18/157/38 96/36/33
f 92/154/123 9/155/25 91/89/27
f 52/189/151 145/130/108 155/131/109
f 141/115/90 145/130/108 52/189/151
f 144/83/67 146/125/102 53/127/105
f 139/83/96 142/83/65 47/190/152
f 44/191/153 140/113/94 143/113/88
f 143/113/88 141/115/90 42/126/103
f 142/83/65 144/83/67 45/122/99
f 54/124/101 153/116/104 155/131/109
f 155/131/109 154/128/106 53/127/105
f 51/114/89 151/123/100 154/128/106
f 148/121/98 153/116/104 54/124/101
f 46/119/95 150/86/69 151/123/100
f 152/118/93 148/121/98 48/84/66
f 43/192/154 149/116/91 152/118/93
f 147/86/70 150/86/69 46/119/95
