# Blender 3.6.5
# www.blender.org
mtllib building.mtl
o building
v 1514.703979 -0.071051 5.623404
v 1514.703979 15.326499 5.623404
v 1503.958618 -0.071051 5.623404
v 1503.958618 15.326499 5.623404
v 1514.703979 -0.071051 -5.411152
v 1514.703979 15.326499 -5.411152
v 1503.958618 -0.071051 -5.411152
v 1503.958618 15.326499 -5.411152
v 1514.123535 -0.071051 -5.411228
v 1514.123535 10.164585 -5.411228
v 1504.857422 -0.071051 -5.411230
v 1504.857422 10.164585 -5.411230
v 1514.123535 -0.071051 -16.445786
v 1514.123535 10.164585 -16.445786
v 1504.857422 -0.071051 -16.445786
v 1504.857422 10.164585 -16.445786
v 1514.123535 -0.071051 16.657993
v 1514.123535 10.164585 16.657993
v 1504.857422 -0.071051 16.657993
v 1504.857422 10.164585 16.657993
v 1514.123535 -0.071051 5.623438
v 1514.123535 10.164585 5.623438
v 1504.857422 -0.071051 5.623438
v 1504.857422 10.164585 5.623438
v 1515.354980 14.963005 6.291873
v 1503.307617 14.963005 6.291873
v 1515.354980 14.963005 -6.079621
v 1503.307617 14.963005 -6.079622
v 1514.747803 9.992691 -4.750419
v 1504.233154 9.992691 -4.750421
v 1514.747803 9.992691 -17.271795
v 1504.233154 9.992691 -17.271795
v 1514.747803 9.992691 17.484003
v 1504.233154 9.992691 17.484003
v 1514.747803 9.992691 4.962630
v 1504.233154 9.992691 4.962629
v 1509.490479 14.335547 4.962629
v 1509.490479 14.335547 -4.750421
v 1509.331299 19.180685 0.106126
v 1515.459351 9.448874 -4.750419
v 1503.521606 9.448874 -4.750421
v 1515.459351 9.448874 -17.847950
v 1503.521606 9.448874 -17.847950
v 1515.459351 9.448874 18.060158
v 1503.521606 9.448874 18.060158
v 1515.459351 9.448874 4.962630
v 1503.521606 9.448874 4.962629
vn -0.0000 -0.0000 1.0000
vn -1.0000 -0.0000 -0.0000
vn -0.0000 -0.0000 -1.0000
vn 1.0000 -0.0000 -0.0000
vn 0.5736 0.8192 -0.0000
vn -0.6369 0.7710 -0.0000
vn 0.6369 0.7710 -0.0000
vn -0.0000 0.8262 -0.5633
vn -0.0000 0.9448 0.3277
vn -0.0000 0.9448 -0.3277
vn -0.5736 0.8192 -0.0000
vn -0.0000 0.8262 0.5633
vn -0.0000 0.7272 0.6864
vn 0.6072 0.7945 -0.0000
vn -0.6072 0.7945 -0.0000
vn -0.0000 0.7272 -0.6864
vt 0.608507 0.811024
vt 0.408348 0.625031
vt 0.608507 0.625031
vt 0.608507 0.748671
vt 0.608507 0.748671
vt 0.205992 0.558543
vt 0.267633 0.558543
vt 0.267633 0.620184
vt 0.205992 0.620184
vt 0.408348 0.811024
vt 0.408348 0.748671
vt 0.408348 0.748671
s 0
usemtl Material
f 2/1/1 3/2/1 1/3/1
f 4/1/2 7/2/2 3/3/2
f 8/1/3 5/2/3 7/3/3
f 6/1/4 1/2/4 5/3/4
f 12/4/2 15/2/2 11/3/2
f 16/5/3 13/2/3 15/3/3
f 14/4/4 9/2/4 13/3/4
f 18/5/1 19/2/1 17/3/1
f 20/4/2 23/2/2 19/3/2
f 22/4/4 17/2/4 21/3/4
f 25/6/5 27/7/5 39/8/5
f 37/6/6 36/7/6 34/8/6
f 33/6/7 35/7/7 37/8/7
f 27/6/8 28/7/8 39/8/8
f 29/6/7 31/7/7 38/8/7
f 30/6/6 38/7/6 32/8/6
f 37/6/9 34/7/9 33/8/9
f 31/6/10 32/7/10 38/8/10
f 28/6/11 26/7/11 39/8/11
f 26/6/12 25/7/12 39/8/12
f 34/7/13 44/9/13 33/6/13
f 33/7/14 46/9/14 35/6/14
f 34/6/15 47/8/15 45/9/15
f 31/6/14 40/8/14 42/9/14
f 32/6/16 42/8/16 43/9/16
f 32/7/15 41/9/15 30/6/15
f 38/7/7 35/9/7 29/6/7
f 40/7/14 35/9/14 46/6/14
f 30/7/15 47/9/15 36/6/15
f 2/1/1 4/10/1 3/2/1
f 4/1/2 8/10/2 7/2/2
f 8/1/3 6/10/3 5/2/3
f 6/1/4 2/10/4 1/2/4
f 12/4/2 16/11/2 15/2/2
f 16/5/3 14/12/3 13/2/3
f 14/4/4 10/11/4 9/2/4
f 18/5/1 20/12/1 19/2/1
f 20/4/2 24/11/2 23/2/2
f 22/4/4 18/11/4 17/2/4
f 34/7/13 45/8/13 44/9/13
f 33/7/14 44/8/14 46/9/14
f 34/6/15 36/7/15 47/8/15
f 31/6/14 29/7/14 40/8/14
f 32/6/16 31/7/16 42/8/16
f 32/7/15 43/8/15 41/9/15
f 38/7/7 37/8/7 35/9/7
f 40/7/14 29/8/14 35/9/14
f 30/7/15 41/8/15 47/9/15
